<mxfile host="app.diagrams.net" agent="Mozilla/5.0 (Windows NT 10.0; Win64; x64) AppleWebKit/537.36 (KHTML, like Gecko) Chrome/134.0.0.0 Safari/537.36" version="26.2.8">
  <diagram name="페이지-1" id="5Roarvn0DbCisCHhPTAc">
    <mxGraphModel dx="1429" dy="859" grid="1" gridSize="10" guides="1" tooltips="1" connect="1" arrows="1" fold="1" page="1" pageScale="1" pageWidth="827" pageHeight="1169" math="0" shadow="0">
      <root>
        <mxCell id="0" />
        <mxCell id="1" parent="0" />
        <mxCell id="JNXdjdAS1zDWwB0j5-TY-11" value="" style="group" vertex="1" connectable="0" parent="1">
          <mxGeometry x="90" y="90" width="220" height="200" as="geometry" />
        </mxCell>
        <mxCell id="JNXdjdAS1zDWwB0j5-TY-1" value="" style="rounded=0;whiteSpace=wrap;html=1;" vertex="1" parent="JNXdjdAS1zDWwB0j5-TY-11">
          <mxGeometry width="170" height="200" as="geometry" />
        </mxCell>
        <mxCell id="JNXdjdAS1zDWwB0j5-TY-3" value="&lt;h1 style=&quot;margin-top: 0px;&quot;&gt;Pineapple&lt;br&gt;Game&lt;/h1&gt;" style="text;html=1;whiteSpace=wrap;overflow=hidden;rounded=0;align=center;" vertex="1" parent="JNXdjdAS1zDWwB0j5-TY-11">
          <mxGeometry x="25" width="120" height="60" as="geometry" />
        </mxCell>
        <mxCell id="JNXdjdAS1zDWwB0j5-TY-5" value="Main" style="text;html=1;align=center;verticalAlign=middle;whiteSpace=wrap;rounded=0;" vertex="1" parent="JNXdjdAS1zDWwB0j5-TY-11">
          <mxGeometry x="160" width="60" height="30" as="geometry" />
        </mxCell>
        <mxCell id="JNXdjdAS1zDWwB0j5-TY-6" value="" style="rounded=1;whiteSpace=wrap;html=1;" vertex="1" parent="JNXdjdAS1zDWwB0j5-TY-11">
          <mxGeometry x="45" y="90" width="80" height="20" as="geometry" />
        </mxCell>
        <mxCell id="JNXdjdAS1zDWwB0j5-TY-7" value="" style="rounded=1;whiteSpace=wrap;html=1;" vertex="1" parent="JNXdjdAS1zDWwB0j5-TY-11">
          <mxGeometry x="45" y="120" width="80" height="20" as="geometry" />
        </mxCell>
        <mxCell id="JNXdjdAS1zDWwB0j5-TY-8" value="" style="ellipse;whiteSpace=wrap;html=1;aspect=fixed;" vertex="1" parent="JNXdjdAS1zDWwB0j5-TY-11">
          <mxGeometry x="140" y="170" width="20" height="20" as="geometry" />
        </mxCell>
        <mxCell id="JNXdjdAS1zDWwB0j5-TY-9" value="Play&lt;span style=&quot;color: rgba(0, 0, 0, 0); font-family: monospace; font-size: 0px; text-align: start; text-wrap-mode: nowrap;&quot;&gt;%3CmxGraphModel%3E%3Croot%3E%3CmxCell%20id%3D%220%22%2F%3E%3CmxCell%20id%3D%221%22%20parent%3D%220%22%2F%3E%3CmxCell%20id%3D%222%22%20value%3D%22%22%20style%3D%22rounded%3D1%3BwhiteSpace%3Dwrap%3Bhtml%3D1%3B%22%20vertex%3D%221%22%20parent%3D%221%22%3E%3CmxGeometry%20x%3D%22135%22%20y%3D%22180%22%20width%3D%2280%22%20height%3D%2220%22%20as%3D%22geometry%22%2F%3E%3C%2FmxCell%3E%3C%2Froot%3E%3C%2FmxGraphModel%3E&lt;/span&gt;" style="text;html=1;align=center;verticalAlign=middle;whiteSpace=wrap;rounded=0;" vertex="1" parent="JNXdjdAS1zDWwB0j5-TY-11">
          <mxGeometry x="55" y="85" width="60" height="30" as="geometry" />
        </mxCell>
        <mxCell id="JNXdjdAS1zDWwB0j5-TY-10" value="Mode select" style="text;html=1;align=center;verticalAlign=middle;whiteSpace=wrap;rounded=0;" vertex="1" parent="JNXdjdAS1zDWwB0j5-TY-11">
          <mxGeometry x="47.5" y="115" width="75" height="30" as="geometry" />
        </mxCell>
        <mxCell id="JNXdjdAS1zDWwB0j5-TY-25" value="" style="endArrow=classic;startArrow=classic;html=1;rounded=0;exitX=1;exitY=0.5;exitDx=0;exitDy=0;entryX=0;entryY=0.5;entryDx=0;entryDy=0;" edge="1" parent="1" source="JNXdjdAS1zDWwB0j5-TY-1" target="JNXdjdAS1zDWwB0j5-TY-13">
          <mxGeometry width="50" height="50" relative="1" as="geometry">
            <mxPoint x="500" y="300" as="sourcePoint" />
            <mxPoint x="550" y="250" as="targetPoint" />
          </mxGeometry>
        </mxCell>
        <mxCell id="JNXdjdAS1zDWwB0j5-TY-32" value="" style="group" vertex="1" connectable="0" parent="1">
          <mxGeometry x="90" y="410" width="220" height="200" as="geometry" />
        </mxCell>
        <mxCell id="JNXdjdAS1zDWwB0j5-TY-33" value="" style="rounded=0;whiteSpace=wrap;html=1;" vertex="1" parent="JNXdjdAS1zDWwB0j5-TY-32">
          <mxGeometry width="170" height="200" as="geometry" />
        </mxCell>
        <mxCell id="JNXdjdAS1zDWwB0j5-TY-35" value="Game" style="text;html=1;align=center;verticalAlign=middle;whiteSpace=wrap;rounded=0;" vertex="1" parent="JNXdjdAS1zDWwB0j5-TY-32">
          <mxGeometry x="160" width="60" height="30" as="geometry" />
        </mxCell>
        <mxCell id="JNXdjdAS1zDWwB0j5-TY-39" value="Time : 100&amp;nbsp; &amp;nbsp; &amp;nbsp;Score : 12" style="text;html=1;align=center;verticalAlign=middle;whiteSpace=wrap;rounded=0;" vertex="1" parent="JNXdjdAS1zDWwB0j5-TY-32">
          <mxGeometry x="10" width="150" height="30" as="geometry" />
        </mxCell>
        <mxCell id="JNXdjdAS1zDWwB0j5-TY-64" value="대충 게임들어갈 공간" style="text;html=1;align=center;verticalAlign=middle;whiteSpace=wrap;rounded=0;" vertex="1" parent="JNXdjdAS1zDWwB0j5-TY-32">
          <mxGeometry x="40" y="85" width="100" height="30" as="geometry" />
        </mxCell>
        <mxCell id="JNXdjdAS1zDWwB0j5-TY-41" value="" style="group" vertex="1" connectable="0" parent="1">
          <mxGeometry x="480" y="410" width="250" height="200" as="geometry" />
        </mxCell>
        <mxCell id="JNXdjdAS1zDWwB0j5-TY-42" value="" style="rounded=0;whiteSpace=wrap;html=1;" vertex="1" parent="JNXdjdAS1zDWwB0j5-TY-41">
          <mxGeometry width="170" height="200" as="geometry" />
        </mxCell>
        <mxCell id="JNXdjdAS1zDWwB0j5-TY-43" value="&lt;h1 style=&quot;margin-top: 0px;&quot;&gt;Mode&lt;/h1&gt;" style="text;html=1;whiteSpace=wrap;overflow=hidden;rounded=0;align=center;" vertex="1" parent="JNXdjdAS1zDWwB0j5-TY-41">
          <mxGeometry x="25" width="120" height="60" as="geometry" />
        </mxCell>
        <mxCell id="JNXdjdAS1zDWwB0j5-TY-44" value="ModeSelect" style="text;html=1;align=center;verticalAlign=middle;whiteSpace=wrap;rounded=0;" vertex="1" parent="JNXdjdAS1zDWwB0j5-TY-41">
          <mxGeometry x="160" width="90" height="30" as="geometry" />
        </mxCell>
        <mxCell id="JNXdjdAS1zDWwB0j5-TY-59" value="" style="shape=singleArrow;direction=west;whiteSpace=wrap;html=1;arrowWidth=0.34074074074074284;arrowSize=0.5987661856192119;" vertex="1" parent="JNXdjdAS1zDWwB0j5-TY-41">
          <mxGeometry x="14" y="10" width="20" height="20" as="geometry" />
        </mxCell>
        <mxCell id="JNXdjdAS1zDWwB0j5-TY-62" value="mode 1 : another multiple" style="text;html=1;align=left;verticalAlign=middle;whiteSpace=wrap;rounded=0;" vertex="1" parent="JNXdjdAS1zDWwB0j5-TY-41">
          <mxGeometry x="12.5" y="40" width="145" height="30" as="geometry" />
        </mxCell>
        <mxCell id="JNXdjdAS1zDWwB0j5-TY-63" value="mode 2 : item" style="text;html=1;align=left;verticalAlign=middle;whiteSpace=wrap;rounded=0;" vertex="1" parent="JNXdjdAS1zDWwB0j5-TY-41">
          <mxGeometry x="12.5" y="70" width="145" height="30" as="geometry" />
        </mxCell>
        <mxCell id="JNXdjdAS1zDWwB0j5-TY-51" value="" style="endArrow=classic;startArrow=classic;html=1;rounded=0;entryX=0.5;entryY=1;entryDx=0;entryDy=0;exitX=0.5;exitY=0;exitDx=0;exitDy=0;" edge="1" parent="1" target="JNXdjdAS1zDWwB0j5-TY-1">
          <mxGeometry width="50" height="50" relative="1" as="geometry">
            <mxPoint x="175" y="410" as="sourcePoint" />
            <mxPoint x="280" y="350" as="targetPoint" />
          </mxGeometry>
        </mxCell>
        <mxCell id="JNXdjdAS1zDWwB0j5-TY-52" value="" style="endArrow=classic;startArrow=classic;html=1;rounded=0;entryX=1;entryY=1;entryDx=0;entryDy=0;exitX=0;exitY=0;exitDx=0;exitDy=0;" edge="1" parent="1" source="JNXdjdAS1zDWwB0j5-TY-42" target="JNXdjdAS1zDWwB0j5-TY-1">
          <mxGeometry width="50" height="50" relative="1" as="geometry">
            <mxPoint x="230" y="400" as="sourcePoint" />
            <mxPoint x="280" y="350" as="targetPoint" />
          </mxGeometry>
        </mxCell>
        <mxCell id="JNXdjdAS1zDWwB0j5-TY-65" value="" style="group" vertex="1" connectable="0" parent="1">
          <mxGeometry x="480" y="90" width="230" height="200" as="geometry" />
        </mxCell>
        <mxCell id="JNXdjdAS1zDWwB0j5-TY-12" value="" style="group" vertex="1" connectable="0" parent="JNXdjdAS1zDWwB0j5-TY-65">
          <mxGeometry width="220" height="200" as="geometry" />
        </mxCell>
        <mxCell id="JNXdjdAS1zDWwB0j5-TY-13" value="" style="rounded=0;whiteSpace=wrap;html=1;" vertex="1" parent="JNXdjdAS1zDWwB0j5-TY-12">
          <mxGeometry width="170" height="200" as="geometry" />
        </mxCell>
        <mxCell id="JNXdjdAS1zDWwB0j5-TY-14" value="&lt;h1 style=&quot;margin-top: 0px;&quot;&gt;Setting&lt;/h1&gt;" style="text;html=1;whiteSpace=wrap;overflow=hidden;rounded=0;align=center;" vertex="1" parent="JNXdjdAS1zDWwB0j5-TY-12">
          <mxGeometry x="25" width="120" height="60" as="geometry" />
        </mxCell>
        <mxCell id="JNXdjdAS1zDWwB0j5-TY-19" value="sound" style="text;html=1;align=center;verticalAlign=middle;whiteSpace=wrap;rounded=0;" vertex="1" parent="JNXdjdAS1zDWwB0j5-TY-12">
          <mxGeometry x="10" y="50" width="50" height="20" as="geometry" />
        </mxCell>
        <mxCell id="JNXdjdAS1zDWwB0j5-TY-21" value="" style="shape=singleArrow;direction=west;whiteSpace=wrap;html=1;arrowWidth=0.34074074074074284;arrowSize=0.5987661856192119;" vertex="1" parent="JNXdjdAS1zDWwB0j5-TY-12">
          <mxGeometry x="10" y="10" width="20" height="20" as="geometry" />
        </mxCell>
        <mxCell id="JNXdjdAS1zDWwB0j5-TY-26" value="effect" style="text;html=1;align=center;verticalAlign=middle;whiteSpace=wrap;rounded=0;" vertex="1" parent="JNXdjdAS1zDWwB0j5-TY-12">
          <mxGeometry x="10" y="80" width="50" height="20" as="geometry" />
        </mxCell>
        <mxCell id="JNXdjdAS1zDWwB0j5-TY-27" value="etc.&lt;br&gt;.&lt;br&gt;." style="text;html=1;align=center;verticalAlign=middle;whiteSpace=wrap;rounded=0;" vertex="1" parent="JNXdjdAS1zDWwB0j5-TY-12">
          <mxGeometry x="10" y="130" width="50" height="20" as="geometry" />
        </mxCell>
        <mxCell id="JNXdjdAS1zDWwB0j5-TY-28" value="&lt;font style=&quot;font-size: 9px;&quot;&gt;ON&lt;/font&gt;" style="labelPosition=center;verticalLabelPosition=middle;align=center;html=1;shape=mxgraph.basic.button;dx=2.89;whiteSpace=wrap;" vertex="1" parent="JNXdjdAS1zDWwB0j5-TY-12">
          <mxGeometry x="92.5" y="82.5" width="35" height="15" as="geometry" />
        </mxCell>
        <mxCell id="JNXdjdAS1zDWwB0j5-TY-30" value="" style="rounded=0;whiteSpace=wrap;html=1;" vertex="1" parent="JNXdjdAS1zDWwB0j5-TY-12">
          <mxGeometry x="70" y="57.5" width="90" height="5" as="geometry" />
        </mxCell>
        <mxCell id="JNXdjdAS1zDWwB0j5-TY-31" value="" style="rounded=0;whiteSpace=wrap;html=1;fillColor=#1A1A1A;strokeColor=none;" vertex="1" parent="JNXdjdAS1zDWwB0j5-TY-12">
          <mxGeometry x="70" y="57.5" width="70" height="5" as="geometry" />
        </mxCell>
        <mxCell id="JNXdjdAS1zDWwB0j5-TY-15" value="Setting" style="text;html=1;align=center;verticalAlign=middle;whiteSpace=wrap;rounded=0;" vertex="1" parent="JNXdjdAS1zDWwB0j5-TY-65">
          <mxGeometry x="170" width="60" height="30" as="geometry" />
        </mxCell>
      </root>
    </mxGraphModel>
  </diagram>
</mxfile>
